<svg width="25" height="24" viewBox="0 0 25 24" fill="none" xmlns="http://www.w3.org/2000/svg">
<path d="M8.19004 9.00012C8.19004 7.97903 8.59566 6.99977 9.31768 6.27775C10.0397 5.55574 11.019 5.15012 12.04 5.15012C13.0611 5.15012 14.0404 5.55574 14.7624 6.27775C15.4844 6.99977 15.89 7.97903 15.89 9.00012C15.89 10.0212 15.4844 11.0005 14.7624 11.7225C14.0404 12.4445 13.0611 12.8501 12.04 12.8501C11.019 12.8501 10.0397 12.4445 9.31768 11.7225C8.59566 11.0005 8.19004 10.0212 8.19004 9.00012ZM6.10752 10.6229C6.41879 11.7606 7.05015 12.7831 7.92402 13.57C4.83014 14.7485 2.89004 17.2399 2.89004 20.0001C2.89004 20.3051 3.0112 20.5976 3.22687 20.8133C3.44253 21.029 3.73504 21.1501 4.04004 21.1501C4.34504 21.1501 4.63754 21.029 4.85321 20.8133C5.06888 20.5976 5.19004 20.3051 5.19004 20.0001C5.19004 17.8385 7.44983 15.1501 12.04 15.1501C16.6302 15.1501 18.89 17.8385 18.89 20.0001C18.89 20.3051 19.0112 20.5976 19.2269 20.8133C19.4425 21.029 19.735 21.1501 20.04 21.1501C20.345 21.1501 20.6375 21.029 20.8532 20.8133C21.0689 20.5976 21.19 20.3051 21.19 20.0001C21.19 17.2399 19.2518 14.7485 16.1551 13.57C17.029 12.783 17.6603 11.7606 17.9716 10.6229C18.3056 9.40196 18.2547 8.10773 17.826 6.91679C17.3972 5.72585 16.6114 4.69621 15.5758 3.96839C14.5402 3.24056 13.3053 2.85 12.0395 2.85C10.7738 2.85 9.53883 3.24056 8.50324 3.96839C7.46766 4.69621 6.68187 5.72585 6.25311 6.91679C5.82435 8.10773 5.77351 9.40196 6.10752 10.6229Z" fill="#3C3C3C" stroke="#3C3C3C" stroke-width="0.3"/>
</svg>
