<svg width="28" height="27" viewBox="0 0 28 27" fill="none" xmlns="http://www.w3.org/2000/svg">
<mask id="mask0_336_3756" style="mask-type:alpha" maskUnits="userSpaceOnUse" x="0" y="0" width="28" height="27">
<rect x="0.0400391" width="27" height="27" fill="#D9D9D9"/>
</mask>
<g mask="url(#mask0_336_3756)">
<path d="M13.54 21.375C13.2213 21.375 12.9543 21.267 12.739 21.051C12.523 20.8357 12.415 20.5688 12.415 20.25V14.625H6.79004C6.47129 14.625 6.20391 14.517 5.98791 14.301C5.77266 14.0857 5.66504 13.8188 5.66504 13.5C5.66504 13.1813 5.77266 12.9139 5.98791 12.6979C6.20391 12.4826 6.47129 12.375 6.79004 12.375H12.415V6.75C12.415 6.43125 12.523 6.16388 12.739 5.94788C12.9543 5.73263 13.2213 5.625 13.54 5.625C13.8588 5.625 14.1262 5.73263 14.3422 5.94788C14.5574 6.16388 14.665 6.43125 14.665 6.75V12.375H20.29C20.6088 12.375 20.8758 12.4826 21.091 12.6979C21.307 12.9139 21.415 13.1813 21.415 13.5C21.415 13.8188 21.307 14.0857 21.091 14.301C20.8758 14.517 20.6088 14.625 20.29 14.625H14.665V20.25C14.665 20.5688 14.5574 20.8357 14.3422 21.051C14.1262 21.267 13.8588 21.375 13.54 21.375Z" fill="black"/>
</g>
</svg>
