<svg width="26" height="25" viewBox="0 0 26 25" fill="none" xmlns="http://www.w3.org/2000/svg">
<mask id="mask0_345_3640" style="mask-type:alpha" maskUnits="userSpaceOnUse" x="0" y="0" width="26" height="25">
<rect x="0.0400391" width="25" height="25" fill="#D9D9D9"/>
</mask>
<g mask="url(#mask0_345_3640)">
<path d="M7.33179 2.08325H17.7485V10.2603C17.7485 10.6596 17.6616 11.0155 17.488 11.328C17.3144 11.6405 17.0714 11.8923 16.7589 12.0833L13.061 14.2708L13.7901 16.6666H17.7485L14.5193 18.9583L15.7693 22.9166L12.5401 20.4687L9.31095 22.9166L10.561 18.9583L7.33179 16.6666H11.2901L12.0193 14.2708L8.32137 12.0833C8.00887 11.8923 7.76581 11.6405 7.5922 11.328C7.41859 11.0155 7.33179 10.6596 7.33179 10.2603V2.08325ZM9.41512 4.16659V10.2603L11.4985 11.5103V4.16659H9.41512ZM15.6651 4.16659H13.5818V11.5103L15.6651 10.2603V4.16659Z" fill="#1C1B1F"/>
</g>
</svg>
