<svg width="24" height="24" viewBox="0 0 24 24" fill="none" xmlns="http://www.w3.org/2000/svg">
<path d="M18.413 20.8109L18.413 20.8109L13.6097 15.8075C12.6114 16.5544 11.4376 17.0095 10.2106 17.1234C8.93907 17.2415 7.66139 16.9886 6.52071 16.3934C5.38009 15.7982 4.42188 14.8845 3.7527 13.7554C3.08355 12.6263 2.72957 11.326 2.72988 9.99999L18.413 20.8109ZM18.413 20.8109C18.6208 21.0272 18.9038 21.1498 19.2003 21.1497C19.4967 21.1496 19.7797 21.0267 19.9873 20.8103C20.1947 20.5941 20.3102 20.3022 20.3101 19.9991C20.31 19.696 20.1943 19.4041 19.9868 19.1881L15.1755 14.1773C15.7867 13.2937 16.196 12.2762 16.372 11.2024C16.5549 10.087 16.4808 8.94231 16.1557 7.86243C15.8306 6.78254 15.2638 5.79798 14.5014 4.99004C13.739 4.18207 12.8027 3.57381 11.7695 3.2159C10.7362 2.85798 9.63588 2.7608 8.55927 2.9325C7.48268 3.10419 6.4611 3.53976 5.57858 4.20284C4.6961 4.8659 3.978 5.7374 3.48294 6.74521C2.9879 7.75298 2.72989 8.86849 2.72988 9.99995L18.413 20.8109ZM6.31398 6.56833C7.18654 5.65942 8.36865 5.14999 9.59988 5.14999C10.8311 5.14999 12.0132 5.65942 12.8858 6.56833C13.7585 7.47746 14.2499 8.71176 14.2499 9.99999C14.2499 11.2882 13.7585 12.5225 12.8858 13.4316C12.0132 14.3406 10.8311 14.85 9.59988 14.85C8.36865 14.85 7.18654 14.3406 6.31398 13.4316C5.44122 12.5225 4.94988 11.2882 4.94988 9.99999C4.94988 8.71176 5.44122 7.47746 6.31398 6.56833Z" fill="#3C3C3C" stroke="#3C3C3C" stroke-width="0.3"/>
</svg>
