<svg width="100" height="5" viewBox="0 0 241 30" fill="none" xmlns="http://www.w3.org/2000/svg">
<path d="M7.76094 1.15C7.20094 1.15 6.65094 1.31 6.11094 1.63C5.57094 1.95 5.09094 2.51 4.67094 3.31C4.25094 4.09 3.91094 5.15 3.65094 6.49C3.39094 7.81 3.26094 9.48 3.26094 11.5C3.26094 13.52 3.39094 15.2 3.65094 16.54C3.91094 17.86 4.26094 18.92 4.70094 19.72C5.14094 20.5 5.65094 21.05 6.23094 21.37C6.81094 21.69 7.42094 21.85 8.06094 21.85C8.58094 21.85 9.11094 21.71 9.65094 21.43C10.1909 21.15 10.6809 20.76 11.1209 20.26C11.5809 19.76 11.9609 19.17 12.2609 18.49C12.5809 17.81 12.7809 17.08 12.8609 16.3H13.3109C13.2309 17.2 13.0309 18.03 12.7109 18.79C12.3909 19.53 11.9809 20.18 11.4809 20.74C11.0009 21.28 10.4409 21.7 9.80094 22C9.16094 22.3 8.48094 22.45 7.76094 22.45C6.82094 22.45 5.91094 22.23 5.03094 21.79C4.15094 21.33 3.36094 20.65 2.66094 19.75C1.98094 18.83 1.43094 17.69 1.01094 16.33C0.610938 14.95 0.410938 13.34 0.410938 11.5C0.410938 9.66 0.610938 8.06 1.01094 6.7C1.43094 5.32 1.97094 4.18 2.63094 3.28C3.31094 2.36 4.07094 1.68 4.91094 1.24C5.75094 0.779999 6.60094 0.549999 7.46094 0.549999C7.94094 0.549999 8.37094 0.629999 8.75094 0.789999C9.15094 0.949999 9.49094 1.13 9.77094 1.33C10.0909 1.55 10.3709 1.8 10.6109 2.08C10.7709 1.78 10.9809 1.5 11.2409 1.24C11.5209 0.959999 11.8109 0.779999 12.1109 0.699999H12.5609C12.5209 0.999999 12.4909 1.3 12.4709 1.6C12.4509 1.88 12.4309 2.18 12.4109 2.5C12.4109 2.8 12.4109 3.1 12.4109 3.4C12.4109 3.74 12.4109 4.08 12.4109 4.42C12.4309 4.74 12.4509 5.04 12.4709 5.32C12.4909 5.64 12.5209 5.95 12.5609 6.25H12.1109C11.6509 4.59 11.0309 3.33 10.2509 2.47C9.49094 1.59 8.66094 1.15 7.76094 1.15ZM16.618 21.25V1.75L14.818 1.3V0.999999H19.018V10C19.218 9.6 19.488 9.23 19.828 8.89C20.108 8.61 20.468 8.35 20.908 8.11C21.348 7.87 21.868 7.75 22.468 7.75C23.068 7.75 23.618 7.86 24.118 8.08C24.638 8.3 25.088 8.61 25.468 9.01C25.848 9.39 26.138 9.86 26.338 10.42C26.558 10.96 26.668 11.57 26.668 12.25V21.25L28.468 21.7V22H22.618V21.7L24.268 21.25V12.25C24.268 10.83 24.038 9.83 23.578 9.25C23.138 8.65 22.618 8.35 22.018 8.35C21.518 8.35 21.088 8.49 20.728 8.77C20.368 9.05 20.058 9.36 19.798 9.7C19.498 10.1 19.238 10.55 19.018 11.05V21.25L20.668 21.7V22H14.818V21.7L16.618 21.25ZM38.2109 14.65C36.4709 14.65 35.1809 15.04 34.3409 15.82C33.5209 16.58 33.1109 17.64 33.1109 19C33.1109 19.9 33.3309 20.6 33.7709 21.1C34.2109 21.6 34.6909 21.85 35.2109 21.85C35.6909 21.85 36.1109 21.71 36.4709 21.43C36.8509 21.15 37.1709 20.84 37.4309 20.5C37.7309 20.12 37.9909 19.67 38.2109 19.15V14.65ZM35.9609 8.2C35.3609 8.2 34.8609 8.41 34.4609 8.83C34.0609 9.23 33.8609 9.77 33.8609 10.45C33.8609 10.61 33.8609 10.75 33.8609 10.87C33.8809 10.99 33.9009 11.1 33.9209 11.2C33.9409 11.3 33.9709 11.4 34.0109 11.5L31.6109 12.1C31.5709 12.04 31.5409 11.96 31.5209 11.86C31.5009 11.76 31.4809 11.65 31.4609 11.53C31.4609 11.41 31.4609 11.25 31.4609 11.05C31.4609 10.63 31.5609 10.23 31.7609 9.85C31.9609 9.45 32.2509 9.1 32.6309 8.8C33.0309 8.48 33.5009 8.23 34.0409 8.05C34.6009 7.85 35.2409 7.75 35.9609 7.75C37.4009 7.75 38.5309 8.16 39.3509 8.98C40.1909 9.8 40.6109 10.89 40.6109 12.25V21.25L42.4109 21.7V22H38.2109V20.2C37.9909 20.62 37.7109 21 37.3709 21.34C37.0909 21.62 36.7309 21.87 36.2909 22.09C35.8709 22.33 35.3609 22.45 34.7609 22.45C33.3209 22.45 32.2309 22.11 31.4909 21.43C30.7709 20.75 30.4109 19.84 30.4109 18.7C30.4109 18.14 30.5609 17.58 30.8609 17.02C31.1809 16.46 31.6509 15.96 32.2709 15.52C32.9109 15.08 33.7209 14.73 34.7009 14.47C35.6809 14.19 36.8509 14.05 38.2109 14.05V12.25C38.2109 10.75 37.9809 9.7 37.5209 9.1C37.0809 8.5 36.5609 8.2 35.9609 8.2ZM46.0063 21.25V8.95L44.2063 8.5V8.2H48.4063V10C48.6063 9.6 48.8763 9.23 49.2163 8.89C49.4963 8.61 49.8563 8.35 50.2963 8.11C50.7363 7.87 51.2563 7.75 51.8563 7.75C52.6163 7.75 53.2363 7.89 53.7163 8.17C54.2163 8.45 54.6163 8.76 54.9163 9.1C55.2763 9.5 55.5563 9.95 55.7563 10.45C56.0163 9.95 56.3263 9.5 56.6863 9.1C57.0063 8.76 57.3963 8.45 57.8563 8.17C58.3163 7.89 58.8663 7.75 59.5063 7.75C60.1063 7.75 60.6563 7.86 61.1563 8.08C61.6763 8.3 62.1263 8.61 62.5063 9.01C62.8863 9.39 63.1763 9.86 63.3763 10.42C63.5963 10.96 63.7063 11.57 63.7063 12.25V21.25L65.5063 21.7V22H59.6563V21.7L61.3063 21.25V12.25C61.3063 10.83 61.0763 9.83 60.6163 9.25C60.1763 8.65 59.6563 8.35 59.0563 8.35C58.5563 8.35 58.1263 8.49 57.7663 8.77C57.4063 9.05 57.0963 9.36 56.8363 9.7C56.5363 10.1 56.2763 10.55 56.0563 11.05V21.25L57.7063 21.7V22H52.0063V21.7L53.6563 21.25V12.25C53.6563 10.83 53.4263 9.83 52.9663 9.25C52.5263 8.65 52.0063 8.35 51.4063 8.35C50.9063 8.35 50.4763 8.49 50.1163 8.77C49.7563 9.05 49.4463 9.36 49.1863 9.7C48.8863 10.1 48.6263 10.55 48.4063 11.05V21.25L50.0563 21.7V22H44.2063V21.7L46.0063 21.25ZM68.7922 8.95L66.9922 8.5V8.2H71.1922V10C71.3922 9.6 71.6622 9.23 72.0022 8.89C72.2822 8.61 72.6422 8.35 73.0822 8.11C73.5222 7.87 74.0422 7.75 74.6422 7.75C75.2822 7.75 75.9122 7.92 76.5322 8.26C77.1722 8.58 77.7322 9.06 78.2122 9.7C78.7122 10.32 79.1122 11.09 79.4122 12.01C79.7322 12.91 79.8922 13.94 79.8922 15.1C79.8922 16.26 79.7322 17.3 79.4122 18.22C79.1122 19.12 78.7022 19.89 78.1822 20.53C77.6622 21.15 77.0722 21.63 76.4122 21.97C75.7522 22.29 75.0622 22.45 74.3422 22.45C73.7622 22.45 73.2722 22.37 72.8722 22.21C72.4922 22.07 72.1722 21.9 71.9122 21.7C71.6122 21.48 71.3722 21.23 71.1922 20.95V28.45L72.9922 28.9V29.2H66.9922V28.9L68.7922 28.45V8.95ZM73.8922 21.85C74.3122 21.85 74.7122 21.74 75.0922 21.52C75.4922 21.3 75.8422 20.93 76.1422 20.41C76.4622 19.87 76.7122 19.17 76.8922 18.31C77.0922 17.45 77.1922 16.38 77.1922 15.1C77.1922 13.82 77.0922 12.75 76.8922 11.89C76.7122 11.03 76.4722 10.34 76.1722 9.82C75.8922 9.3 75.5722 8.93 75.2122 8.71C74.8722 8.47 74.5322 8.35 74.1922 8.35C73.6922 8.35 73.2622 8.49 72.9022 8.77C72.5422 9.05 72.2322 9.36 71.9722 9.7C71.6722 10.1 71.4122 10.55 71.1922 11.05V20.05C71.3722 20.39 71.5922 20.69 71.8522 20.95C72.0722 21.17 72.3522 21.38 72.6922 21.58C73.0322 21.76 73.4322 21.85 73.8922 21.85ZM84.0922 21.25V8.95L82.2922 8.5V8.2H86.4922V21.25L88.2922 21.7V22H82.2922V21.7L84.0922 21.25ZM86.6422 4.75C86.6422 5.13 86.4822 5.48 86.1622 5.8C85.8622 6.1 85.5222 6.25 85.1422 6.25C84.7622 6.25 84.4122 6.1 84.0922 5.8C83.7922 5.48 83.6422 5.13 83.6422 4.75C83.6422 4.37 83.7922 4.03 84.0922 3.73C84.4122 3.41 84.7622 3.25 85.1422 3.25C85.5222 3.25 85.8622 3.41 86.1622 3.73C86.4822 4.03 86.6422 4.37 86.6422 4.75ZM96.0852 8.2C95.7452 8.2 95.3952 8.32 95.0352 8.56C94.6952 8.78 94.3752 9.16 94.0752 9.7C93.7952 10.22 93.5552 10.92 93.3552 11.8C93.1752 12.68 93.0852 13.78 93.0852 15.1C93.0852 16.42 93.1752 17.52 93.3552 18.4C93.5552 19.28 93.7952 19.99 94.0752 20.53C94.3752 21.05 94.6952 21.43 95.0352 21.67C95.3952 21.89 95.7452 22 96.0852 22C96.4252 22 96.7652 21.89 97.1052 21.67C97.4652 21.43 97.7852 21.05 98.0652 20.53C98.3652 19.99 98.6052 19.28 98.7852 18.4C98.9852 17.52 99.0852 16.42 99.0852 15.1C99.0852 13.78 98.9852 12.68 98.7852 11.8C98.6052 10.92 98.3652 10.22 98.0652 9.7C97.7852 9.16 97.4652 8.78 97.1052 8.56C96.7652 8.32 96.4252 8.2 96.0852 8.2ZM96.0852 7.75C96.8252 7.75 97.5352 7.92 98.2152 8.26C98.9152 8.58 99.5252 9.06 100.045 9.7C100.585 10.32 101.005 11.09 101.305 12.01C101.625 12.91 101.785 13.94 101.785 15.1C101.785 16.26 101.625 17.3 101.305 18.22C101.005 19.12 100.585 19.89 100.045 20.53C99.5252 21.15 98.9152 21.63 98.2152 21.97C97.5352 22.29 96.8252 22.45 96.0852 22.45C95.3252 22.45 94.6052 22.29 93.9252 21.97C93.2452 21.63 92.6352 21.15 92.0952 20.53C91.5752 19.89 91.1552 19.12 90.8352 18.22C90.5352 17.3 90.3852 16.26 90.3852 15.1C90.3852 13.94 90.5352 12.91 90.8352 12.01C91.1552 11.09 91.5752 10.32 92.0952 9.7C92.6352 9.06 93.2452 8.58 93.9252 8.26C94.6052 7.92 95.3252 7.75 96.0852 7.75ZM105.977 21.25V8.95L104.177 8.5V8.2H108.377V10C108.577 9.6 108.847 9.23 109.187 8.89C109.467 8.61 109.827 8.35 110.267 8.11C110.707 7.87 111.227 7.75 111.827 7.75C112.427 7.75 112.977 7.86 113.477 8.08C113.997 8.3 114.447 8.61 114.827 9.01C115.207 9.39 115.497 9.86 115.697 10.42C115.917 10.96 116.027 11.57 116.027 12.25V21.25L117.827 21.7V22H111.977V21.7L113.627 21.25V12.25C113.627 10.83 113.397 9.83 112.937 9.25C112.497 8.65 111.977 8.35 111.377 8.35C110.877 8.35 110.447 8.49 110.087 8.77C109.727 9.05 109.417 9.36 109.157 9.7C108.857 10.1 108.597 10.55 108.377 11.05V21.25L110.027 21.7V22H104.177V21.7L105.977 21.25ZM132.823 8.2C132.483 8.2 132.133 8.32 131.773 8.56C131.433 8.78 131.113 9.16 130.813 9.7C130.533 10.22 130.293 10.92 130.093 11.8C129.913 12.68 129.823 13.78 129.823 15.1C129.823 16.42 129.913 17.52 130.093 18.4C130.293 19.28 130.533 19.99 130.813 20.53C131.113 21.05 131.433 21.43 131.773 21.67C132.133 21.89 132.483 22 132.823 22C133.163 22 133.503 21.89 133.843 21.67C134.203 21.43 134.523 21.05 134.803 20.53C135.103 19.99 135.343 19.28 135.523 18.4C135.723 17.52 135.823 16.42 135.823 15.1C135.823 13.78 135.723 12.68 135.523 11.8C135.343 10.92 135.103 10.22 134.803 9.7C134.523 9.16 134.203 8.78 133.843 8.56C133.503 8.32 133.163 8.2 132.823 8.2ZM132.823 7.75C133.563 7.75 134.273 7.92 134.953 8.26C135.653 8.58 136.263 9.06 136.783 9.7C137.323 10.32 137.743 11.09 138.043 12.01C138.363 12.91 138.523 13.94 138.523 15.1C138.523 16.26 138.363 17.3 138.043 18.22C137.743 19.12 137.323 19.89 136.783 20.53C136.263 21.15 135.653 21.63 134.953 21.97C134.273 22.29 133.563 22.45 132.823 22.45C132.063 22.45 131.343 22.29 130.663 21.97C129.983 21.63 129.373 21.15 128.833 20.53C128.313 19.89 127.893 19.12 127.573 18.22C127.273 17.3 127.123 16.26 127.123 15.1C127.123 13.94 127.273 12.91 127.573 12.01C127.893 11.09 128.313 10.32 128.833 9.7C129.373 9.06 129.983 8.58 130.663 8.26C131.343 7.92 132.063 7.75 132.823 7.75ZM150.079 3.55C150.079 3.89 150.019 4.2 149.899 4.48C149.799 4.74 149.679 4.97 149.539 5.17C149.379 5.39 149.209 5.6 149.029 5.8L146.779 4.9C146.959 4.7 147.129 4.49 147.289 4.27C147.429 4.07 147.549 3.84 147.649 3.58C147.769 3.3 147.829 2.99 147.829 2.65C147.829 2.13 147.689 1.73 147.409 1.45C147.149 1.15 146.789 0.999999 146.329 0.999999C146.109 0.999999 145.899 1.06 145.699 1.18C145.499 1.28 145.319 1.47 145.159 1.75C145.019 2.01 144.899 2.37 144.799 2.83C144.719 3.29 144.679 3.88 144.679 4.6V8.2H148.879V8.8H144.679V21.25L146.479 21.7V22H140.479V21.7L142.279 21.25V8.8H140.479V8.2H142.279V4.6C142.279 3.4 142.649 2.43 143.389 1.69C144.149 0.929999 145.129 0.549999 146.329 0.549999C146.889 0.549999 147.399 0.639999 147.859 0.819999C148.319 0.979999 148.709 1.2 149.029 1.48C149.369 1.76 149.629 2.08 149.809 2.44C149.989 2.8 150.079 3.17 150.079 3.55ZM162.089 11.2V21.25L163.889 21.7V22H157.739V21.7L159.539 21.25V1.75L157.739 1.3V0.999999H169.889C169.849 1.18 169.819 1.39 169.799 1.63C169.779 1.85 169.759 2.11 169.739 2.41C169.739 2.69 169.739 3.02 169.739 3.4C169.739 3.68 169.739 3.96 169.739 4.24C169.759 4.5 169.779 4.75 169.799 4.99C169.819 5.27 169.849 5.54 169.889 5.8H169.589C169.069 5.28 168.639 4.66 168.299 3.94C167.959 3.22 167.789 2.44 167.789 1.6H162.089V10.6H164.939L166.289 7.9H166.589V13.9H166.289L164.939 11.2H162.089ZM173.067 21.25V8.95L171.267 8.5V8.2H175.467V21.25L177.267 21.7V22H171.267V21.7L173.067 21.25ZM175.617 4.75C175.617 5.13 175.457 5.48 175.137 5.8C174.837 6.1 174.497 6.25 174.117 6.25C173.737 6.25 173.387 6.1 173.067 5.8C172.767 5.48 172.617 5.13 172.617 4.75C172.617 4.37 172.767 4.03 173.067 3.73C173.387 3.41 173.737 3.25 174.117 3.25C174.497 3.25 174.837 3.41 175.137 3.73C175.457 4.03 175.617 4.37 175.617 4.75ZM186.71 8.2V8.8H183.26V18.37C183.26 19.59 183.48 20.48 183.92 21.04C184.36 21.58 184.84 21.85 185.36 21.85C186.04 21.85 186.61 21.6 187.07 21.1C187.55 20.58 187.83 19.83 187.91 18.85H188.36C188.28 19.99 187.93 20.88 187.31 21.52C186.71 22.14 185.96 22.45 185.06 22.45C183.78 22.45 182.76 22.08 182 21.34C181.24 20.58 180.86 19.6 180.86 18.4V8.8H178.31V8.2H180.86V4.75L183.26 3.1V8.2H186.71ZM191.524 21.25V8.95L189.724 8.5V8.2H193.924V10C194.124 9.6 194.394 9.23 194.734 8.89C195.014 8.61 195.374 8.35 195.814 8.11C196.254 7.87 196.774 7.75 197.374 7.75C197.974 7.75 198.524 7.86 199.024 8.08C199.544 8.3 199.994 8.61 200.374 9.01C200.754 9.39 201.044 9.86 201.244 10.42C201.464 10.96 201.574 11.57 201.574 12.25V21.25L203.374 21.7V22H197.524V21.7L199.174 21.25V12.25C199.174 10.83 198.944 9.83 198.484 9.25C198.044 8.65 197.524 8.35 196.924 8.35C196.424 8.35 195.994 8.49 195.634 8.77C195.274 9.05 194.964 9.36 194.704 9.7C194.404 10.1 194.144 10.55 193.924 11.05V21.25L195.574 21.7V22H189.724V21.7L191.524 21.25ZM208.163 15.1C208.163 16.38 208.253 17.45 208.433 18.31C208.633 19.17 208.883 19.87 209.183 20.41C209.503 20.93 209.853 21.3 210.233 21.52C210.633 21.74 211.043 21.85 211.463 21.85C211.983 21.85 212.473 21.75 212.933 21.55C213.393 21.35 213.803 21.08 214.163 20.74C214.523 20.4 214.813 19.99 215.033 19.51C215.273 19.03 215.433 18.51 215.513 17.95H215.963C215.883 18.59 215.703 19.19 215.423 19.75C215.163 20.29 214.823 20.76 214.403 21.16C213.983 21.56 213.493 21.87 212.933 22.09C212.393 22.33 211.803 22.45 211.163 22.45C210.403 22.45 209.683 22.29 209.003 21.97C208.323 21.63 207.713 21.15 207.173 20.53C206.653 19.89 206.233 19.12 205.913 18.22C205.613 17.3 205.463 16.26 205.463 15.1C205.463 13.9 205.613 12.84 205.913 11.92C206.213 11 206.603 10.24 207.083 9.64C207.583 9.02 208.153 8.55 208.793 8.23C209.453 7.91 210.143 7.75 210.863 7.75C211.583 7.75 212.263 7.91 212.903 8.23C213.563 8.55 214.133 9.02 214.613 9.64C215.113 10.24 215.513 11 215.813 11.92C216.113 12.84 216.263 13.9 216.263 15.1H208.163ZM210.863 8.2C210.563 8.2 210.263 8.3 209.963 8.5C209.663 8.68 209.383 9.01 209.123 9.49C208.863 9.97 208.643 10.62 208.463 11.44C208.303 12.24 208.203 13.26 208.163 14.5H213.563C213.523 13.26 213.413 12.24 213.233 11.44C213.073 10.62 212.863 9.97 212.603 9.49C212.343 9.01 212.063 8.68 211.763 8.5C211.463 8.3 211.163 8.2 210.863 8.2ZM223.923 22.45C223.283 22.45 222.733 22.37 222.273 22.21C221.813 22.07 221.443 21.9 221.163 21.7C220.823 21.48 220.543 21.23 220.323 20.95C220.243 21.25 220.073 21.53 219.813 21.79C219.573 22.05 219.343 22.22 219.123 22.3H218.673C218.693 22.04 218.713 21.77 218.733 21.49C218.753 21.25 218.773 21 218.793 20.74C218.813 20.46 218.823 20.18 218.823 19.9C218.823 19.6 218.813 19.3 218.793 19C218.773 18.7 218.753 18.43 218.733 18.19C218.713 17.91 218.693 17.63 218.673 17.35H219.123C219.503 18.79 220.083 19.9 220.863 20.68C221.643 21.46 222.563 21.85 223.623 21.85C224.463 21.85 225.143 21.59 225.663 21.07C226.203 20.55 226.473 19.91 226.473 19.15C226.473 18.61 226.283 18.14 225.903 17.74C225.543 17.34 225.083 16.98 224.523 16.66C223.963 16.32 223.363 15.99 222.723 15.67C222.083 15.35 221.483 14.99 220.923 14.59C220.363 14.19 219.893 13.72 219.513 13.18C219.153 12.64 218.973 11.98 218.973 11.2C218.973 10.76 219.073 10.33 219.273 9.91C219.473 9.49 219.743 9.12 220.083 8.8C220.443 8.48 220.873 8.23 221.373 8.05C221.873 7.85 222.423 7.75 223.023 7.75C223.543 7.75 223.993 7.83 224.373 7.99C224.773 8.15 225.113 8.32 225.393 8.5C225.693 8.72 225.953 8.97 226.173 9.25C226.253 8.95 226.413 8.67 226.653 8.41C226.913 8.15 227.153 7.98 227.373 7.9H227.823C227.783 8.16 227.753 8.43 227.733 8.71C227.713 8.95 227.693 9.21 227.673 9.49C227.673 9.77 227.673 10.04 227.673 10.3C227.673 10.6 227.673 10.91 227.673 11.23C227.693 11.53 227.713 11.8 227.733 12.04C227.753 12.32 227.783 12.59 227.823 12.85H227.373C226.993 11.41 226.433 10.3 225.693 9.52C224.953 8.74 224.163 8.35 223.323 8.35C222.643 8.35 222.073 8.58 221.613 9.04C221.153 9.48 220.923 10 220.923 10.6C220.923 11.1 221.113 11.53 221.493 11.89C221.873 12.25 222.343 12.59 222.903 12.91C223.463 13.21 224.073 13.52 224.733 13.84C225.413 14.16 226.033 14.53 226.593 14.95C227.153 15.37 227.623 15.87 228.003 16.45C228.383 17.03 228.573 17.73 228.573 18.55C228.573 19.03 228.453 19.51 228.213 19.99C227.993 20.45 227.673 20.87 227.253 21.25C226.853 21.61 226.363 21.9 225.783 22.12C225.223 22.34 224.603 22.45 223.923 22.45ZM236.081 22.45C235.441 22.45 234.891 22.37 234.431 22.21C233.971 22.07 233.601 21.9 233.321 21.7C232.981 21.48 232.701 21.23 232.481 20.95C232.401 21.25 232.231 21.53 231.971 21.79C231.731 22.05 231.501 22.22 231.281 22.3H230.831C230.851 22.04 230.871 21.77 230.891 21.49C230.911 21.25 230.931 21 230.951 20.74C230.971 20.46 230.981 20.18 230.981 19.9C230.981 19.6 230.971 19.3 230.951 19C230.931 18.7 230.911 18.43 230.891 18.19C230.871 17.91 230.851 17.63 230.831 17.35H231.281C231.661 18.79 232.241 19.9 233.021 20.68C233.801 21.46 234.721 21.85 235.781 21.85C236.621 21.85 237.301 21.59 237.821 21.07C238.361 20.55 238.631 19.91 238.631 19.15C238.631 18.61 238.441 18.14 238.061 17.74C237.701 17.34 237.241 16.98 236.681 16.66C236.121 16.32 235.521 15.99 234.881 15.67C234.241 15.35 233.641 14.99 233.081 14.59C232.521 14.19 232.051 13.72 231.671 13.18C231.311 12.64 231.131 11.98 231.131 11.2C231.131 10.76 231.231 10.33 231.431 9.91C231.631 9.49 231.901 9.12 232.241 8.8C232.601 8.48 233.031 8.23 233.531 8.05C234.031 7.85 234.581 7.75 235.181 7.75C235.701 7.75 236.151 7.83 236.531 7.99C236.931 8.15 237.271 8.32 237.551 8.5C237.851 8.72 238.111 8.97 238.331 9.25C238.411 8.95 238.571 8.67 238.811 8.41C239.071 8.15 239.311 7.98 239.531 7.9H239.981C239.941 8.16 239.911 8.43 239.891 8.71C239.871 8.95 239.851 9.21 239.831 9.49C239.831 9.77 239.831 10.04 239.831 10.3C239.831 10.6 239.831 10.91 239.831 11.23C239.851 11.53 239.871 11.8 239.891 12.04C239.911 12.32 239.941 12.59 239.981 12.85H239.531C239.151 11.41 238.591 10.3 237.851 9.52C237.111 8.74 236.321 8.35 235.481 8.35C234.801 8.35 234.231 8.58 233.771 9.04C233.311 9.48 233.081 10 233.081 10.6C233.081 11.1 233.271 11.53 233.651 11.89C234.031 12.25 234.501 12.59 235.061 12.91C235.621 13.21 236.231 13.52 236.891 13.84C237.571 14.16 238.191 14.53 238.751 14.95C239.311 15.37 239.781 15.87 240.161 16.45C240.541 17.03 240.731 17.73 240.731 18.55C240.731 19.03 240.611 19.51 240.371 19.99C240.151 20.45 239.831 20.87 239.411 21.25C239.011 21.61 238.521 21.9 237.941 22.12C237.381 22.34 236.761 22.45 236.081 22.45Z" fill="black"/>
</svg>
