<svg width="39" height="39" viewBox="0 0 39 39" fill="none" xmlns="http://www.w3.org/2000/svg">
<mask id="mask0_453_399" style="mask-type:alpha" maskUnits="userSpaceOnUse" x="0" y="0" width="39" height="39">
<rect width="39" height="39" fill="#D9D9D9"/>
</mask>
<g mask="url(#mask0_453_399)">
<path d="M1.625 37.375L4.79375 26.4875C4.27917 25.3771 3.89323 24.2396 3.63594 23.075C3.37865 21.9104 3.25 20.7188 3.25 19.5C3.25 17.2521 3.67656 15.1396 4.52969 13.1625C5.38281 11.1854 6.54062 9.46562 8.00312 8.00312C9.46562 6.54062 11.1854 5.38281 13.1625 4.52969C15.1396 3.67656 17.2521 3.25 19.5 3.25C21.7479 3.25 23.8604 3.67656 25.8375 4.52969C27.8146 5.38281 29.5344 6.54062 30.9969 8.00312C32.4594 9.46562 33.6172 11.1854 34.4703 13.1625C35.3234 15.1396 35.75 17.2521 35.75 19.5C35.75 21.7479 35.3234 23.8604 34.4703 25.8375C33.6172 27.8146 32.4594 29.5344 30.9969 30.9969C29.5344 32.4594 27.8146 33.6172 25.8375 34.4703C23.8604 35.3234 21.7479 35.75 19.5 35.75C18.2812 35.75 17.0896 35.6214 15.925 35.3641C14.7604 35.1068 13.6229 34.7208 12.5125 34.2063L1.625 37.375ZM6.41875 32.5813L11.6188 31.0375C11.9979 30.9292 12.3839 30.8885 12.7766 30.9156C13.1693 30.9427 13.5417 31.0375 13.8938 31.2C14.7604 31.6333 15.6677 31.9583 16.6156 32.175C17.5635 32.3917 18.525 32.5 19.5 32.5C23.1292 32.5 26.2031 31.2406 28.7219 28.7219C31.2406 26.2031 32.5 23.1292 32.5 19.5C32.5 15.8708 31.2406 12.7969 28.7219 10.2781C26.2031 7.75938 23.1292 6.5 19.5 6.5C15.8708 6.5 12.7969 7.75938 10.2781 10.2781C7.75938 12.7969 6.5 15.8708 6.5 19.5C6.5 20.475 6.60833 21.4365 6.825 22.3844C7.04167 23.3323 7.36667 24.2396 7.8 25.1062C7.98958 25.4583 8.09115 25.8307 8.10469 26.2234C8.11823 26.6161 8.07083 27.0021 7.9625 27.3813L6.41875 32.5813ZM17.875 26H21.125V21.125H26V17.875H21.125V13H17.875V17.875H13V21.125H17.875V26Z" fill="#1C1B1F"/>
</g>
</svg>
