<svg width="41" height="41" viewBox="0 0 41 41" fill="none" xmlns="http://www.w3.org/2000/svg">
<mask id="mask0_287_2783" style="mask-type:alpha" maskUnits="userSpaceOnUse" x="0" y="0" width="41" height="41">
<rect width="41" height="41" fill="#D9D9D9"/>
</mask>
<g mask="url(#mask0_287_2783)">
<path d="M20.5 35.8748L18.0229 33.6539C15.1472 31.063 12.7698 28.8279 10.8906 26.9487C9.01142 25.0696 7.51663 23.3826 6.40621 21.8878C5.29579 20.393 4.51992 19.0192 4.07861 17.7664C3.63729 16.5137 3.41663 15.2324 3.41663 13.9227C3.41663 11.2463 4.3135 9.01123 6.10725 7.21748C7.901 5.42373 10.1361 4.52686 12.8125 4.52686C14.293 4.52686 15.7024 4.84005 17.0406 5.46644C18.3788 6.09283 19.5319 6.97547 20.5 8.11436C21.468 6.97547 22.6211 6.09283 23.9593 5.46644C25.2975 4.84005 26.7069 4.52686 28.1875 4.52686C30.8638 4.52686 33.0989 5.42373 34.8927 7.21748C36.6864 9.01123 37.5833 11.2463 37.5833 13.9227C37.5833 15.2324 37.3626 16.5137 36.9213 17.7664C36.48 19.0192 35.7041 20.393 34.5937 21.8878C33.4833 23.3826 31.9885 25.0696 30.1093 26.9487C28.2302 28.8279 25.8527 31.063 22.977 33.6539L20.5 35.8748ZM20.5 31.2623C23.2333 28.8137 25.4826 26.7138 27.2479 24.9628C29.0132 23.2118 30.4083 21.6885 31.4333 20.393C32.4583 19.0975 33.1701 17.9444 33.5687 16.9336C33.9673 15.9229 34.1666 14.9192 34.1666 13.9227C34.1666 12.2144 33.5972 10.7907 32.4583 9.65186C31.3194 8.51297 29.8958 7.94352 28.1875 7.94352C26.8493 7.94352 25.6107 8.32078 24.4718 9.07529C23.3329 9.82981 22.55 10.7907 22.1229 11.9581H18.877C18.45 10.7907 17.667 9.82981 16.5281 9.07529C15.3892 8.32078 14.1507 7.94352 12.8125 7.94352C11.1041 7.94352 9.68051 8.51297 8.54163 9.65186C7.40274 10.7907 6.83329 12.2144 6.83329 13.9227C6.83329 14.9192 7.0326 15.9229 7.43121 16.9336C7.82982 17.9444 8.54163 19.0975 9.56663 20.393C10.5916 21.6885 11.9868 23.2118 13.752 24.9628C15.5173 26.7138 17.7666 28.8137 20.5 31.2623Z" fill="#1C1B1F"/>
</g>
</svg>
