<svg width="110" height="25" viewBox="0 0 152 33" fill="none" xmlns="http://www.w3.org/2000/svg">
<path d="M0.598078 32V3.69H18.6481V9.352H7.40008V15.546H17.0521V21.208H7.40008V32H0.598078ZM22.9997 32V10.378H29.7637V32H22.9997ZM26.3817 7.376C24.1017 7.376 22.6197 6.008 22.6197 3.88C22.6197 1.79 24.1017 0.421999 26.3817 0.421999C28.6237 0.421999 30.1437 1.79 30.1437 3.88C30.1437 6.008 28.6237 7.376 26.3817 7.376ZM43.7207 32.532C38.2867 32.532 36.0827 29.074 36.0827 23.982V15.66H33.1567V10.644L36.5007 10.378L37.2607 4.64H42.8467V10.378H47.9387V15.66H42.8467V23.906C42.8467 26.3 43.9867 27.25 45.5827 27.25C46.2667 27.25 47.0267 27.022 47.5587 26.832L48.6227 31.734C47.4827 32.076 45.9247 32.532 43.7207 32.532ZM52.6625 32V3.69H62.6185C68.8125 3.69 73.9425 5.932 73.9425 12.924C73.9425 19.65 68.7745 22.614 62.7705 22.614H59.4645V32H52.6625ZM59.4645 17.256H62.4285C65.7345 17.256 67.3305 15.698 67.3305 12.924C67.3305 10.074 65.5065 9.086 62.2385 9.086H59.4645V17.256ZM84.3744 32.532C79.7384 32.532 78.2184 29.492 78.2184 24.97V1.638H84.9824V25.198C84.9824 26.642 85.6284 27.06 86.1604 27.06C86.3884 27.06 86.5404 27.06 86.9204 26.984L87.7184 31.962C86.9964 32.266 85.8944 32.532 84.3744 32.532ZM96.3076 32.532C92.3176 32.532 89.8856 29.568 89.8856 25.958C89.8856 21.398 93.4576 18.928 101.894 18.016C101.742 16.268 100.83 15.242 98.6256 15.242C96.9156 15.242 95.1296 15.926 92.9636 17.142L90.6076 12.696C93.4576 10.986 96.5356 9.846 99.9176 9.846C105.504 9.846 108.658 12.962 108.658 19.726V32H103.148L102.692 29.834H102.502C100.716 31.43 98.7016 32.532 96.3076 32.532ZM98.6256 27.288C99.9936 27.288 100.906 26.642 101.894 25.578V22.12C97.6756 22.652 96.3076 23.906 96.3076 25.426C96.3076 26.68 97.2196 27.288 98.6256 27.288ZM123.419 32.532C117.339 32.532 112.665 28.352 112.665 21.17C112.665 14.026 117.985 9.846 124.027 9.846C126.649 9.846 128.701 10.758 130.335 12.164L127.181 16.458C126.193 15.66 125.357 15.318 124.445 15.318C121.443 15.318 119.581 17.598 119.581 21.17C119.581 24.78 121.557 27.06 124.179 27.06C125.547 27.06 126.839 26.414 127.941 25.54L130.563 29.986C128.435 31.848 125.699 32.532 123.419 32.532ZM142.573 32.532C136.341 32.532 131.553 28.352 131.553 21.17C131.553 14.178 136.607 9.846 141.813 9.846C148.045 9.846 151.085 14.368 151.085 20.258C151.085 21.474 150.933 22.652 150.781 23.184H138.089C138.697 26.148 140.749 27.364 143.485 27.364C145.043 27.364 146.487 26.908 148.045 25.996L150.287 30.062C148.045 31.658 145.081 32.532 142.573 32.532ZM137.975 18.738H145.347C145.347 16.61 144.397 15.014 141.927 15.014C140.065 15.014 138.431 16.192 137.975 18.738Z" fill="black"/>
</svg>
