<svg width="40" height="40" viewBox="0 0 40 40" fill="none" xmlns="http://www.w3.org/2000/svg">
<mask id="mask0_458_511" style="mask-type:alpha" maskUnits="userSpaceOnUse" x="0" y="0" width="40" height="40">
<rect width="40" height="40" fill="#D9D9D9"/>
</mask>
<g mask="url(#mask0_458_511)">
<path d="M19.996 33.3332C19.3227 33.3332 18.7475 33.0934 18.2706 32.614C17.7936 32.1346 17.5552 31.5582 17.5552 30.8848C17.5552 30.2115 17.7949 29.6364 18.2743 29.1594C18.7541 28.6828 19.3305 28.4444 20.0035 28.4444C20.6768 28.4444 21.252 28.6841 21.7289 29.1636C22.2059 29.643 22.4443 30.2194 22.4443 30.8928C22.4443 31.5661 22.2046 32.1411 21.7252 32.6178C21.2455 33.0947 20.6691 33.3332 19.996 33.3332ZM19.996 22.4444C19.3227 22.4444 18.7475 22.2047 18.2706 21.7253C17.7936 21.2455 17.5552 20.6691 17.5552 19.9961C17.5552 19.3228 17.7949 18.7476 18.2743 18.2707C18.7541 17.7937 19.3305 17.5553 20.0035 17.5553C20.6768 17.5553 21.252 17.795 21.7289 18.2744C22.2059 18.7541 22.4443 19.3305 22.4443 20.0036C22.4443 20.6769 22.2046 21.2521 21.7252 21.729C21.2455 22.2059 20.6691 22.4444 19.996 22.4444ZM19.996 11.5553C19.3227 11.5553 18.7475 11.3155 18.2706 10.8361C17.7936 10.3566 17.5552 9.78025 17.5552 9.10692C17.5552 8.43359 17.7949 7.85859 18.2743 7.38192C18.7541 6.90498 19.3305 6.6665 20.0035 6.6665C20.6768 6.6665 21.252 6.90623 21.7289 7.38567C22.2059 7.86512 22.4443 8.4415 22.4443 9.11484C22.4443 9.78817 22.2046 10.3633 21.7252 10.8403C21.2455 11.3169 20.6691 11.5553 19.996 11.5553Z" fill="#666666"/>
</g>
</svg>
