<svg width="30" height="30" viewBox="0 0 43 43" fill="none" xmlns="http://www.w3.org/2000/svg">
<mask id="mask0_334_3047" style="mask-type:alpha" maskUnits="userSpaceOnUse" x="0" y="0" width="43" height="43">
<rect width="43" height="43" fill="#D9D9D9"/>
</mask>
<g mask="url(#mask0_334_3047)">
<path d="M7.1665 35.7843V32.0915H10.7498V19.1667C10.7498 16.6125 11.4964 14.343 12.9894 12.3581C14.4825 10.3732 16.4234 9.07306 18.8123 8.45759V7.16511C18.8123 6.39578 19.0736 5.74184 19.5962 5.20331C20.1188 4.66477 20.7533 4.39551 21.4998 4.39551C22.2464 4.39551 22.8809 4.66477 23.4035 5.20331C23.9261 5.74184 24.1873 6.39578 24.1873 7.16511V8.45759C26.5762 9.07306 28.5172 10.3732 30.0103 12.3581C31.5033 14.343 32.2498 16.6125 32.2498 19.1667V32.0915H35.8332V35.7843H7.1665ZM21.4998 41.3236C20.5144 41.3236 19.6708 40.962 18.9691 40.2388C18.2674 39.5156 17.9165 38.6463 17.9165 37.6307H25.0832C25.0832 38.6463 24.7323 39.5156 24.0306 40.2388C23.3288 40.962 22.4853 41.3236 21.4998 41.3236ZM14.3332 32.0915H28.6665V19.1667C28.6665 17.1357 27.9648 15.397 26.5613 13.9506C25.1578 12.5043 23.4707 11.7811 21.4998 11.7811C19.529 11.7811 17.8419 12.5043 16.4384 13.9506C15.0349 15.397 14.3332 17.1357 14.3332 19.1667V32.0915Z" fill="#1C1B1F"/>
</g>
</svg>
