<svg width="29" height="29" viewBox="0 0 29 29" fill="none" xmlns="http://www.w3.org/2000/svg">
<mask id="mask0_334_2963" style="mask-type:alpha" maskUnits="userSpaceOnUse" x="0" y="0" width="29" height="29">
<rect width="29" height="29" fill="#D9D9D9"/>
</mask>
<g mask="url(#mask0_334_2963)">
<path d="M22.8375 24.5292L16.0708 17.7625C15.4667 18.2458 14.7719 18.6285 13.9865 18.9104C13.201 19.1924 12.3653 19.3333 11.4792 19.3333C9.28403 19.3333 7.42642 18.5733 5.90633 17.0532C4.38544 15.5323 3.625 13.6743 3.625 11.4792C3.625 9.28403 4.38544 7.42601 5.90633 5.90513C7.42642 4.38504 9.28403 3.625 11.4792 3.625C13.6743 3.625 15.5323 4.38504 17.0532 5.90513C18.5733 7.42601 19.3333 9.28403 19.3333 11.4792C19.3333 12.3653 19.1924 13.201 18.9104 13.9865C18.6285 14.7719 18.2458 15.4667 17.7625 16.0708L24.5594 22.8677C24.7809 23.0892 24.8917 23.3611 24.8917 23.6833C24.8917 24.0056 24.7708 24.2875 24.5292 24.5292C24.3076 24.7507 24.0257 24.8615 23.6833 24.8615C23.341 24.8615 23.059 24.7507 22.8375 24.5292ZM11.4792 16.9167C12.9896 16.9167 14.2736 16.3882 15.3313 15.3313C16.3882 14.2736 16.9167 12.9896 16.9167 11.4792C16.9167 9.96875 16.3882 8.68469 15.3313 7.627C14.2736 6.57011 12.9896 6.04167 11.4792 6.04167C9.96875 6.04167 8.68469 6.57011 7.627 7.627C6.57011 8.68469 6.04167 9.96875 6.04167 11.4792C6.04167 12.9896 6.57011 14.2736 7.627 15.3313C8.68469 16.3882 9.96875 16.9167 11.4792 16.9167Z" fill="black"/>
</g>
</svg>
